Patient4_TMGait_0pt6_01_right_05_EMG.mot
version=1
nRows=26
nColumns=33
inDegrees=no
endheader
time	1LAddLong	2LGlutMax	3LGlutMed	4LIliopsoas	5LSemiMemb	6LBicFemLong	7LRecFem	8LVastMed	9LVastLat	10LGasMed	11LTibAnt	12lTibPost	13LPeroneusLong	14LSol	15LExtDigLong	16LFlexDigLong	17RAddLong	18RGlutMax	19RGlutMed	20RIliopsoas	21RSemiMemb	22RBicFemLong	23RRecFem	24RVastMed	25RVastLat	26RGasMed	27RTibAnt	28RTibPost	29RPeroneusLong	30RSol	31RExtDigLong	32RFlexDigLong
6.31	0.01358	0.067749	0.010834	-0.004578	-0.06424	-0.085907	0.03479	0.005341	-0.13977	0.15213	0.09491	0.007172	0.034332	0.033569	-0.036011	0.005188	-0.023804	-0.27695	-0.26291	0.1236	0.11963	0.16998	0.16907	-0.15427	-0.06073	-0.042419	-0.24628	0.005493	0.13504	-0.13779	0.001526	-0.018158
6.311	0.010834	0.10925	0.012512	-0.003357	-0.018005	-0.21942	-0.032349	0.015869	-0.17044	0.1564	0.007019	0.003052	0.072327	0.056	-0.021515	0.001373	-0.009003	-0.2243	-0.41351	0.25238	0.16922	0.042877	0.16953	-0.059662	-0.036926	-0.050812	0.043945	-0.02243	0.24323	-0.23895	-0.00061	-0.024567
6.312	0.008698	0.16022	0.032349	0.001831	-0.03067	-0.1355	-0.053711	-0.001068	-0.081177	0.043945	-0.079041	0.018616	0.063629	0.002899	-0.007629	0.000763	-0.019836	-0.15656	-0.005188	0.3006	0.052185	-0.22568	-0.00473	-0.05661	0.18707	-0.065765	0.39078	-0.040588	0.15945	-0.13382	-0.001373	-0.02655
6.313	0.007629	0.18402	0.024109	0.007019	-0.053406	-0.014191	-0.027313	-0.005035	-0.018921	-0.18539	-0.023346	0.015259	-0.052948	-0.007935	0.030212	-0.002747	-0.001831	-0.15625	-0.18448	0.22034	0.17944	-0.30228	-0.29159	-0.103	0.22888	-0.005798	0.28778	-0.023651	-0.005188	0.10696	0.004272	-0.02594
6.314	0.001526	0.15625	0.029602	0.00473	0.011139	0.080719	0.008545	-0.002136	0.014648	-0.22827	-0.022888	0.015717	0.006561	0.005188	0.061951	-0.003357	-0.028229	-0.16937	0.21332	0.12573	0.44464	-0.32242	-0.32242	-0.066833	0.23789	0.010681	0.3569	0.015259	0.019989	0.25482	-0.000763	-0.023804
6.315	-0.005341	0.23438	0.02243	-0.006256	0.064697	0.14816	0.025635	0.009003	-0.023956	-0.1358	-0.00824	0.018616	0.070038	0.03952	0.018768	-0.003815	-0.029297	-0.12711	0.23483	0.076294	0.19562	-0.23041	-0.31967	0.044098	0.34653	-0.015564	0.30472	0.030823	-0.10956	0.36331	-0.000458	-0.016327
6.316	-0.016327	0.21637	0.003357	-0.008698	0.054169	0.084991	0.053253	-0.002136	-0.012512	-0.11536	-0.001984	0.007477	-0.009613	0.020142	-0.015106	-0.003815	-0.047455	-0.10529	-0.046844	0.051422	-0.044861	-0.17349	-0.27298	0.21316	0.50797	-0.01236	-0.29282	0.007324	-0.11292	0.18509	0.000458	-0.00824
6.317	-0.001831	0.20569	0.00885	0.018616	0.050049	-0.17563	0.038605	0.002899	-0.006104	-0.078583	0.014496	0.01358	-0.12512	0.051727	-0.048828	-0.005188	-0.070038	-0.21515	0.16663	-0.024109	-0.025024	-0.015717	-0.045319	0.26932	0.10742	-0.007935	-0.48645	-0.014954	0.046234	0.11444	0.00885	-0.006561
6.318	0.007172	0.18539	0.005188	0.007935	-0.007782	-0.34943	0.10284	0.000763	-0.002136	-0.021973	0.0177	0.014343	-0.11917	0.092621	-0.042419	0.004578	-0.029144	-0.16174	0.068207	-0.009155	0.1738	-0.10819	0.0177	0.040436	-0.52383	0.023804	-0.20081	-0.011139	0.036163	0.3598	-0.000916	-0.002289
6.319	0.012207	0.25497	0.008545	-0.001831	0.007477	-0.25528	0.089874	0.011139	-0.02594	0.093536	-0.002136	0.015411	0.065002	0.078278	-0.019073	0.007324	-0.005798	-0.15701	-0.10284	-0.00473	0.072327	-0.21103	-0.16251	-0.040436	-0.61325	0.007019	-0.1294	0.045929	-0.036316	0.13397	0.000458	-0.007019
6.32	0.018921	0.2626	0.006104	-0.012207	0.042419	-0.050507	0.046234	0.005035	0.038147	0.14771	-0.007324	0.022278	0.063629	0.080109	0.016632	0.008392	-0.020752	-0.11932	-0.15579	-0.031891	-0.14984	0.20966	-0.35294	-0.089569	-0.15518	-0.015259	-0.64423	0.015869	0.25971	0.095978	0.001373	-0.005035
6.321	0.021057	0.2533	0.027466	0.003662	0.070801	-0.00351	0.017242	-0.008087	0.079193	0.14984	0.016022	0.016785	-0.47684	0.0737	0.032959	0.001068	-0.031738	-0.09552	0.10101	-0.032196	-0.008545	0.46493	-0.24857	0.018311	-0.054779	-0.027924	-0.54443	-0.000153	0.52612	0.095825	-0.003052	-0.003815
6.322	0.006256	0.21271	0.031738	0.015259	0.046082	0.030823	0.012054	0.002594	0.1088	0.13321	0.039063	0.020752	-0.40726	-0.009613	-0.030823	-0.000458	-0.046234	-0.13046	0.002747	-0.009766	-0.11169	0.23544	-0.11322	0.066681	-0.11169	-0.045776	-0.092468	-0.005341	0.32379	0.027313	-0.001221	-0.007935
6.323	-0.012512	0.21072	0.029602	0.019379	-0.018768	0.017548	0.11169	0.020294	0.092773	0.016632	0.03891	0.019379	-0.25101	-0.099335	-0.067749	-0.008698	-0.049133	-0.16983	-0.1535	-0.061646	0.16052	0.10605	-0.071716	0.093994	-0.089111	-0.03479	0.036011	-0.010223	0.053101	0.14221	-0.000458	-0.002289
6.324	-0.02182	0.23209	0.052795	0.024872	-0.076141	0.016174	0.14923	0.02243	0.006561	-0.097351	0.019836	0.011597	0.000763	-0.094452	-0.058899	0.001678	-0.018311	-0.14893	0.065918	-0.11963	0.10025	0.13718	-0.044556	0.073853	-0.052338	0.023499	0.13428	-0.024719	-0.12756	-0.062103	-0.001526	-0.002441
6.325	-0.018311	0.23743	0.021362	-0.011749	-0.091553	0.063934	0.12283	0.012512	-0.1268	-0.15579	0.011139	0.023804	0.048218	-0.02594	-0.041962	0.003815	0.007324	-0.16098	0.13931	-0.11078	0.18784	0.11414	-0.013123	0.094299	-0.072784	0.01297	0.20676	-0.022125	-0.10712	-0.19134	-0.003357	-0.019989
6.326	-0.011902	0.21133	0.027618	0.018005	0.022125	0.13687	0.088806	-0.00473	-0.085449	-0.055847	0.011139	0.022278	0.083771	-0.026703	-0.014648	-0.002594	0.04303	-0.11093	0.065155	-0.058441	0.026398	0.074463	0.00412	0.060883	-0.055847	-0.019226	0.12833	-0.025482	-0.085144	-0.19165	-0.001068	-0.019989
6.327	-0.004425	0.22629	0.021057	0.002289	0.1059	0.12283	0.1149	-0.013428	-0.001373	0.024261	-0.008087	0.01709	0.32989	0.04776	0.021057	-0.001678	0.055237	-0.1178	-0.10284	-0.065002	-0.057983	0.12039	-0.02182	0.021973	-0.019531	-0.000305	0.029755	-0.005798	-0.14313	-0.41016	-0.001221	-0.025024
6.328	-0.012207	0.21866	0.042114	0.000763	0.016022	0.040741	0.075226	-0.014191	-0.043945	0.052338	-0.012207	0.016785	0.55191	0.073395	0.027618	-0.000305	0.083466	-0.15671	-0.061493	-0.19073	-0.064545	0.21927	0.065308	-0.040436	0.061035	0.018158	0.090485	0.025177	0.082092	-0.55222	-0.006561	-0.024109
6.329	-0.012665	0.1828	0.079651	-0.007172	-0.1265	0.076904	0.022278	-0.010071	-0.067902	0.063782	-0.033417	0.009003	0.69168	0.13428	0.037537	-0.016785	0.033417	-0.16663	0.242	-0.16647	-0.24231	0.22522	0.060272	-0.028229	0.06897	0.071411	0.18188	-0.000458	0.39841	-0.39459	-0.000763	-0.022583
6.33	-0.024719	0.18967	0.039368	0.007477	-0.16876	0.029602	-0.006104	0.005646	-0.070038	0.034637	-0.045624	0.017548	0.6282	0.21973	0.063782	-0.008698	-0.000916	-0.17105	-0.098572	-0.090637	-0.053406	-0.016479	-0.029755	-0.057831	0.003052	0.08606	0.33966	-0.023499	0.4512	-0.093842	0.001526	-0.032501
6.331	-0.022736	0.25085	0.010071	0.02182	-0.20554	-0.13947	-0.032501	0.01236	0.032501	-0.040588	-0.041656	0.019836	-0.11124	0.20081	0.080872	0.001373	-0.005951	-0.11322	-0.13962	0.093536	-0.047913	-0.056458	-0.16541	-0.00061	-0.004272	0.059052	0.44357	-0.028381	0.1976	0.19028	-0.002594	-0.031433
6.332	-0.005646	0.20615	0.022583	-0.006104	-0.12466	-0.1973	-0.12131	-0.003815	0.026855	-0.1033	-0.026245	0.014038	-0.49789	0.096588	0.033875	0.005798	0.024719	-0.20706	-0.17609	0.21683	0.10269	-0.18097	-0.25055	0.052643	0.031281	0.052795	-0.1181	-0.0177	0.077057	0.17868	0.00061	-0.022736
6.333	0.045319	0.15793	0.032196	0.025482	0.14938	-0.28763	-0.1149	-0.010071	-0.041046	-0.10498	-0.001373	0.021973	-0.39536	0.028992	-0.047607	-0.005951	0.052032	-0.15274	-0.17929	0.10834	-0.015106	-0.33966	-0.12619	0.083466	0.093079	0.039978	-1.0263	0.046234	-0.054016	-0.00946	-0.002441	-0.015564
6.334	0.048981	0.22522	0.11276	0.005035	0.17639	-0.20218	0.065155	-0.029907	-0.024719	-0.066376	0.004883	0.016937	0.026398	-0.070953	-0.17242	0.002136	0.059052	-0.071564	-0.067902	-0.002747	-0.23514	-0.47501	-0.11856	0.038452	0.074921	0.028381	-0.67993	0.030823	-0.055237	-0.21759	-0.00061	-0.009003
6.335	0.039368	0.18768	0.11002	0.001221	0.14557	-0.29236	0.14389	-0.029297	0.029297	-0.000305	0.034027	0.017395	0.016174	0.018768	-0.14862	0.002136	0.067902	-0.11749	-0.11932	-0.11368	-0.34546	-0.45349	-0.10269	-0.088654	0.024414	-0.006714	0.12833	-0.02594	-0.36377	-0.26672	-0.001221	-0.021362
